SplineFontDB: 3.0
FontName: Barycent-Bold
FullName: Barycent Bold
FamilyName: Barycent
Weight: Bold
Copyright: Copyright (C) 2016 by Fantastic Stake.
Version: 000.100
ItalicAngle: 0
UnderlinePosition: -100
UnderlineWidth: 50
Ascent: 800
Descent: 200
InvalidEm: 0
sfntRevision: 0x00001999
LayerCount: 2
Layer: 0 0 "+gMyXYgAA" 1
Layer: 1 0 "+Uk2XYgAA" 0
XUID: [1021 265 144155924 24068]
StyleMap: 0x0040
FSType: 8
OS2Version: 3
OS2_WeightWidthSlopeOnly: 0
OS2_UseTypoMetrics: 0
CreationTime: 1474239071
ModificationTime: 1482423006
PfmFamily: 81
TTFWeight: 700
TTFWidth: 5
LineGap: 0
VLineGap: 0
Panose: 0 0 8 0 0 0 0 0 0 0
OS2TypoAscent: 800
OS2TypoAOffset: 0
OS2TypoDescent: -200
OS2TypoDOffset: 0
OS2TypoLinegap: 200
OS2WinAscent: 1000
OS2WinAOffset: 0
OS2WinDescent: 200
OS2WinDOffset: 0
HheadAscent: 1000
HheadAOffset: 0
HheadDescent: -200
HheadDOffset: 0
OS2SubXSize: 650
OS2SubYSize: 600
OS2SubXOff: 0
OS2SubYOff: 75
OS2SupXSize: 650
OS2SupYSize: 600
OS2SupXOff: 0
OS2SupYOff: 350
OS2StrikeYSize: 50
OS2StrikeYPos: 300
OS2CapHeight: 720
OS2XHeight: 500
OS2Vendor: 'UKWN'
OS2CodePages: 00000001.00000000
OS2UnicodeRanges: 00000001.00000000.00000000.00000000
Lookup: 1 0 0 "" { } []
Lookup: 257 0 0 "'cpsp' +WSdlh1tXfUQwf3UoMLkw2jD8MLcw8zCw in +MOkwxjDzZYdbVwAA lookup 0" { "'cpsp' +WSdlh1tXfUQwf3UoMLkw2jD8MLcw8zCw in +MOkwxjDzZYdbVwAA lookup 0 +MLUw1jDGMPww1jDr"  } ['cpsp' ('DFLT' <'dflt' > 'latn' <'dflt' > ) ]
Lookup: 258 0 0 "'kern' +aipm+DBNMKsw/DDLMPMwsAAA in +MOkwxjDzZYdbVwAA lookup 1" { "'kern' +aipm+DBNMKsw/DDLMPMwsAAA in +MOkwxjDzZYdbVwAA lookup 1 +MLUw1jDGMPww1jDr"  } ['kern' ('DFLT' <'dflt' > 'latn' <'dflt' > ) ]
Lookup: 258 0 0 "'kern' +aipm+DBNMKsw/DDLMPMwsAAA in +MOkwxjDzZYdbVwAA lookup 2" { "'kern' +aipm+DBNMKsw/DDLMPMwsAAA in +MOkwxjDzZYdbVwAA lookup 2 +MLUw1jDGMPww1jDr"  } ['kern' ('DFLT' <'dflt' > 'latn' <'dflt' > ) ]
MarkAttachClasses: 1
DEI: 91125
KernClass2: 5+ 8 "'kern' +aipm+DBNMKsw/DDLMPMwsAAA in +MOkwxjDzZYdbVwAA lookup 1 +MLUw1jDGMPww1jDr"
 3 A a
 3 C c

StartChar: .notdef
Encoding: 256 -1 0
Width: 500
Flags: MW
HStem: -200 69<167 333 167 410> -98 47<167 237 231 231 231 237 301 333> -18 23<167 333 167 333> 38 47<200 300 200 300> 118 60<167 333 167 333> 211 24<233 267 233 300> 291 22<167 200 167 333 233 333 233 233> 347 23<167 267 167 300 167 267> 403 37<167 233 167 233> 473 27<167 333 167 333> 534 36<200 233 200 233 200 333 200 267> 604 26<167 267 167 333> 663 37<168 233 168 233 167 233 168 267 267 333> 733 67<168 333 168 168>
VStem: 93 74<-131 -98 -51 -18 5 118 178 291 313 347 370 403 440 473 500 604 630 663> 200 33<235 291 235 291 235 291 534 570> 267 33<235 258 370 413> 333 77<-131 -98 -98 -98 -51 -18 -18 -18 5 118 118 118 178 291 291 291 313 413 413 413 440 473 473 473 500 534 534 534 630 663 663 663 700 733 733 733>
LayerCount: 2
Fore
SplineSet
410 800 m 1
 410 -200 l 1
 93 -200 l 1
 93 800 l 1
 410 800 l 1
333 733 m 1
 168 733 l 1
 168 700 l 1
 233 700 l 1
 233 663 l 1
 167 663 l 1
 167 630 l 1
 333 630 l 1
 333 663 l 1
 267 663 l 1
 267 700 l 1
 333 700 l 1
 333 733 l 1
267 604 m 1
 167 604 l 1
 167 500 l 1
 333 500 l 1
 333 534 l 1
 267 534 l 1
 267 604 l 1
233 570 m 1
 233 534 l 1
 200 534 l 1
 200 570 l 1
 233 570 l 1
333 473 m 1
 167 473 l 1
 167 440 l 1
 233 440 l 1
 233 403 l 1
 167 403 l 1
 167 370 l 1
 267 370 l 1
 267 440 l 1
 333 440 l 1
 333 473 l 1
333 413 m 1
 300 413 l 1
 300 347 l 1
 167 347 l 1
 167 313 l 1
 333 313 l 1
 333 413 l 1
333 291 m 1
 233 291 l 1
 233 235 l 1
 267 235 l 1
 267 258 l 1
 300 258 l 1
 300 211 l 1
 200 211 l 1
 200 291 l 1
 167 291 l 1
 167 178 l 1
 333 178 l 1
 333 291 l 1
333 118 m 1
 167 118 l 1
 167 5 l 1
 333 5 l 1
 333 118 l 1
300 85 m 1
 300 38 l 1
 200 38 l 1
 200 85 l 1
 300 85 l 1
333 -18 m 1
 167 -18 l 1
 167 -51 l 1
 237 -51 l 1
 167 -98 l 1
 167 -131 l 1
 333 -131 l 1
 333 -98 l 1
 231 -98 l 1
 301 -51 l 1
 333 -51 l 1
 333 -18 l 1
EndSplineSet
Validated: 1
EndChar

StartChar: A
Encoding: 65 65 1
Width: 508
Flags: HMW
HStem: 583 142<243 243 261 261>
VStem: 49 146<0 162 162 171 0 200.5> 309 150<0 162 0 171 0 206>
LayerCount: 2
Fore
SplineSet
195 0 m 1
 138 0 86 0 29 0 c 1
 130 720 l 1
 242 720 l 1
 260 720 l 1
 371 720 l 1
 472 0 l 1
 415 0 363 0 306 0 c 1
 290.711111111 172 l 1
 210.527777778 172 l 1
 195 0 l 1
280.933333333 282 m 1
 250.930232558 619.534883721 l 1
 220.458333333 282 l 1
 280.933333333 282 l 1
EndSplineSet
Validated: 524289
Position2: "'cpsp' +WSdlh1tXfUQwf3UoMLkw2jD8MLcw8zCw in +MOkwxjDzZYdbVwAA lookup 0 +MLUw1jDGMPww1jDr" dx=5 dy=0 dh=10 dv=0
EndChar

StartChar: B
Encoding: 66 66 2
Width: 477
Flags: W
HStem: 0 112<196 270.371> 308 112<196 272.478> 608 112<196 270.371>
VStem: 46 150<112 308 420 608> 290 148<128.87 290.826 437.237 590.763>
LayerCount: 2
Fore
SplineSet
439 181 m 1
 439 172 439 162 438 150 c 0
 432 32 360 0 244 0 c 2
 196 0 l 1
 146 -0 96 0 46 0 c 1
 46 110 l 1
 46 610 l 1
 46 720 l 1
 196 720 l 1
 244 720 l 2
 360 720 432 688 438 570 c 0
 438 561 438 555 438 548 c 1
 438 547 l 1
 438 532 l 2
 438 514 438 497 435 458 c 0
 433 430 400 394 359 364 c 1
 400 334 432 298 435 270 c 0
 439 231 439 214 439 196 c 2
 439 181 l 1
290 514 m 0
 289 584 276 607 196 608 c 1
 196 420 l 1
 276 421 289 444 290 514 c 0
196 308 m 1
 196 112 l 1
 278 113 290 137 290 210 c 0
 290 283 278 307 196 308 c 1
EndSplineSet
Validated: 524289
Position2: "'cpsp' +WSdlh1tXfUQwf3UoMLkw2jD8MLcw8zCw in +MOkwxjDzZYdbVwAA lookup 0 +MLUw1jDGMPww1jDr" dx=5 dy=0 dh=10 dv=0
EndChar

StartChar: C
Encoding: 67 67 3
Width: 419
Flags: MW
HStem: 0 110<178 391 264 391 264 391> 610 110<237.5 264 264 391>
VStem: 40 150<224 496 496 505.5>
LayerCount: 2
Fore
SplineSet
190 211 m 2
 190 132 211 110 264 110 c 2
 391 110 l 1
 391 0 l 1
 236 0 l 2
 120 0 48 32 42 150 c 0
 40 189 40 205 40 224 c 2
 40 496 l 6
 40 515 40 531 42 570 c 4
 48 688 120 720 236 720 c 6
 391 720 l 5
 391 610 l 5
 264 610 l 6
 211 610 190 588 190 509 c 6
 190 211 l 2
EndSplineSet
Validated: 1
Position2: "'cpsp' +WSdlh1tXfUQwf3UoMLkw2jD8MLcw8zCw in +MOkwxjDzZYdbVwAA lookup 0 +MLUw1jDGMPww1jDr" dx=5 dy=0 dh=10 dv=0
EndChar

StartChar: D
Encoding: 68 68 4
Width: 495
Flags: W
HStem: 0 111.828<196 270.371> 608.172 111.828<196 270.371>
VStem: 46 150<111.828 608.172> 290 150<128.87 591.13>
LayerCount: 2
Fore
SplineSet
438 570 m 0
 440 531 440 515 440 496 c 2
 440 224 l 2
 440 205 440 189 438 150 c 0
 432 32 360 0 244 0 c 2
 196 0 l 1
 46 0 l 1
 46 110 l 1
 46 610 l 1
 46 720 l 1
 196 720 l 1
 244 720 l 2
 360 720 432 688 438 570 c 0
196 111.828125 m 1
 278.174804688 112.486328125 290 136.623046875 290 211 c 2
 290 509 l 2
 290 583.376953125 278.174804688 607.513671875 196 608.171875 c 1
 196 111.828125 l 1
EndSplineSet
Validated: 524289
Position2: "'cpsp' +WSdlh1tXfUQwf3UoMLkw2jD8MLcw8zCw in +MOkwxjDzZYdbVwAA lookup 0 +MLUw1jDGMPww1jDr" dx=5 dy=0 dh=10 dv=0
EndChar

StartChar: E
Encoding: 69 69 5
Width: 436
Flags: W
HStem: 0 110<197 410> 308 110<197 365> 610 110<197 395>
VStem: 47 150<110 308 418 610>
LayerCount: 2
Fore
SplineSet
197 110 m 1
 410 110 l 1
 410 0 l 1
 47 0 l 1
 47 720 l 1
 395 720 l 1
 395 610 l 1
 197 610 l 1
 197 418 l 1
 365 418 l 1
 365 308 l 5
 197 308 l 1
 197 110 l 1
EndSplineSet
Validated: 1
Position2: "'cpsp' +WSdlh1tXfUQwf3UoMLkw2jD8MLcw8zCw in +MOkwxjDzZYdbVwAA lookup 0 +MLUw1jDGMPww1jDr" dx=5 dy=0 dh=10 dv=0
EndChar

StartChar: F
Encoding: 70 70 6
Width: 415
Flags: W
HStem: 0 21G<47 197> 308 110<197 365> 610 110<197 395>
VStem: 47 150<0 308 418 610>
LayerCount: 2
Fore
SplineSet
395 610 m 1
 197 610 l 1
 197 418 l 1
 365 418 l 1
 365 308 l 1
 197 308 l 5
 197 0 l 1
 47 0 l 1
 47 720 l 1
 395 720 l 1
 395 610 l 1
EndSplineSet
Validated: 1
Position2: "'cpsp' +WSdlh1tXfUQwf3UoMLkw2jD8MLcw8zCw in +MOkwxjDzZYdbVwAA lookup 0 +MLUw1jDGMPww1jDr" dx=5 dy=0 dh=10 dv=0
EndChar

StartChar: G
Encoding: 71 71 7
Width: 475
Flags: W
HStem: 0 110<209.629 288> 610 110<209.629 428>
VStem: 40 150<128.87 591.13> 288 140<110 418>
LayerCount: 2
Fore
SplineSet
190 211 m 2
 190 132 211 110 264 110 c 2
 288 110 l 1
 288 418 l 1
 428 418 l 1
 428 0 l 1
 236 0 l 2
 120 0 48 32 42 150 c 0
 40 189 40 205 40 224 c 2
 40 496 l 2
 40 515 40 531 42 570 c 0
 48 688 120 720 236 720 c 2
 428 720 l 1
 428 610 l 1
 264 610 l 2
 211 610 190 588 190 509 c 2
 190 211 l 2
EndSplineSet
Validated: 1
Position2: "'cpsp' +WSdlh1tXfUQwf3UoMLkw2jD8MLcw8zCw in +MOkwxjDzZYdbVwAA lookup 0 +MLUw1jDGMPww1jDr" dx=5 dy=0 dh=10 dv=0
EndChar

StartChar: H
Encoding: 72 72 8
Width: 526
Flags: W
HStem: 0 21G<47 197 329 479> 308 110<197 329> 700 20G<47 197 329 479>
VStem: 47 150<0 308 418 720> 329 150<0 308 418 720>
LayerCount: 2
Fore
SplineSet
329 720 m 1
 479 720 l 1
 479 0 l 1
 329 0 l 1
 329 308 l 1
 197 308 l 1
 197 0 l 1
 47 0 l 1
 47 720 l 1
 197 720 l 1
 197 418 l 1
 329 418 l 1
 329 720 l 1
EndSplineSet
Validated: 1
Position2: "'cpsp' +WSdlh1tXfUQwf3UoMLkw2jD8MLcw8zCw in +MOkwxjDzZYdbVwAA lookup 0 +MLUw1jDGMPww1jDr" dx=5 dy=0 dh=10 dv=0
EndChar

StartChar: I
Encoding: 73 73 9
Width: 244
Flags: HMW
HStem: 0 720<47 197 47 197>
VStem: 47 150<0 720 0 720>
LayerCount: 2
Fore
SplineSet
47 0 m 5
 47 720 l 5
 197 720 l 5
 197 0 l 5
 47 0 l 5
EndSplineSet
Validated: 1
Position2: "'cpsp' +WSdlh1tXfUQwf3UoMLkw2jD8MLcw8zCw in +MOkwxjDzZYdbVwAA lookup 0 +MLUw1jDGMPww1jDr" dx=5 dy=0 dh=10 dv=0
EndChar

StartChar: J
Encoding: 74 74 10
Width: 330
Flags: MW
HStem: 0 110<12 59 59 85.5 12 87 12 59>
VStem: 133 150<214.5 224 224 720>
LayerCount: 2
Fore
SplineSet
133 720 m 5
 283 720 l 5
 283 224 l 6
 283 205 283 189 281 150 c 4
 275 32 203 0 87 0 c 6
 12 0 l 5
 12 110 l 5
 59 110 l 6
 112 110 133 132 133 211 c 6
 133 720 l 5
EndSplineSet
Validated: 1
Position2: "'cpsp' +WSdlh1tXfUQwf3UoMLkw2jD8MLcw8zCw in +MOkwxjDzZYdbVwAA lookup 0 +MLUw1jDGMPww1jDr" dx=5 dy=0 dh=10 dv=0
EndChar

StartChar: K
Encoding: 75 75 11
Width: 495
Flags: W
HStem: 0 21G<47 197 331.804 497> 700 20G<47 197 315.225 478>
VStem: 47 150<0 326 436 720>
LayerCount: 2
Fore
SplineSet
338 0 m 1
 237 326 l 1
 197 326 l 1
 197 0 l 1
 47 0 l 1
 47 720 l 1
 197 720 l 1
 197 436 l 1
 239 436 l 1
 321 720 l 1
 478 720 l 1
 387 433 l 2
 379.440604694 409.061914863 376.29050394 390.767726753 376.29050394 374.413924499 c 0
 376.29050394 351.826987627 382.299496089 332.941444546 391 308 c 2
 497 0 l 1
 338 0 l 1
EndSplineSet
Validated: 524289
Position2: "'cpsp' +WSdlh1tXfUQwf3UoMLkw2jD8MLcw8zCw in +MOkwxjDzZYdbVwAA lookup 0 +MLUw1jDGMPww1jDr" dx=5 dy=0 dh=10 dv=0
EndChar

StartChar: L
Encoding: 76 76 12
Width: 400
Flags: MW
HStem: 0 110<197 387 197 387>
VStem: 47 150<110 110 110 720>
LayerCount: 2
Fore
SplineSet
197 110 m 1
 387 110 l 1
 387 0 l 1
 47 0 l 1
 47 720 l 1
 197 720 l 1
 197 110 l 1
EndSplineSet
Validated: 1
Position2: "'cpsp' +WSdlh1tXfUQwf3UoMLkw2jD8MLcw8zCw in +MOkwxjDzZYdbVwAA lookup 0 +MLUw1jDGMPww1jDr" dx=5 dy=0 dh=10 dv=0
EndChar

StartChar: M
Encoding: 77 77 13
Width: 626
Flags: W
HStem: 0 21G<47 197 423 573> 700 20G<47 227.201 396.799 573>
VStem: 47 150<0 451.2> 423 150<0 438.981>
LayerCount: 2
Fore
SplineSet
47 0 m 1
 47 720 l 1
 109 720 l 1
 197 720 l 1
 221 720 l 1
 312 426.512695312 l 1
 403 720 l 1
 423 720 l 1
 515 720 l 1
 573 720 l 1
 573 0 l 1
 423 0 l 1
 423 438.981445312 l 1
 364.006835938 258.784179688 l 1
 364.25 258 l 1
 363.75 258 l 1
 260.25 258 l 1
 259.75 258 l 1
 259.993164062 258.784179688 l 1
 197 451.200195312 l 1
 197 0 l 1
 47 0 l 1
EndSplineSet
Validated: 524289
Position2: "'cpsp' +WSdlh1tXfUQwf3UoMLkw2jD8MLcw8zCw in +MOkwxjDzZYdbVwAA lookup 0 +MLUw1jDGMPww1jDr" dx=5 dy=0 dh=10 dv=0
EndChar

StartChar: N
Encoding: 78 78 14
Width: 541
Flags: W
HStem: 0 21G<47 197 314.889 495> 700 20G<47 227.111 345 495>
VStem: 47 150<0 405.818> 345 150<314.182 720>
LayerCount: 2
Fore
SplineSet
47 0 m 1
 47 720 l 1
 101 720 l 1
 197 720 l 1
 221 720 l 1
 345 314.181818182 l 1
 345 720 l 1
 495 720 l 1
 495 0 l 1
 441 0 l 1
 345 0 l 1
 321 0 l 1
 197 405.818181818 l 1
 197 0 l 1
 47 0 l 1
EndSplineSet
Validated: 524289
Position2: "'cpsp' +WSdlh1tXfUQwf3UoMLkw2jD8MLcw8zCw in +MOkwxjDzZYdbVwAA lookup 0 +MLUw1jDGMPww1jDr" dx=5 dy=0 dh=10 dv=0
EndChar

StartChar: O
Encoding: 79 79 15
Width: 486
Flags: W
HStem: -10 120<206.001 279.999> 610 120<206.001 279.999>
VStem: 40 150<120.442 599.558> 296 150<120.442 599.558>
LayerCount: 2
Fore
SplineSet
443 550 m 0
 446 501 446 485 446 466 c 2
 446 254 l 2
 446 235 446 219 443 170 c 0
 435 42 353 -10 258 -10 c 2
 228 -10 l 2
 133 -10 51 42 43 170 c 0
 40 219 40 235 40 254 c 2
 40 466 l 2
 40 485 40 501 43 550 c 0
 51 678 133 730 228 730 c 2
 258 730 l 2
 353 730 435 678 443 550 c 0
296 294 m 2
 296 426 l 2
 296 465 296 504 294 542 c 0
 291 593 274 610 247 610 c 2
 239 610 l 2
 212 610 195 593 192 542 c 0
 190 504 190 465 190 426 c 2
 190 294 l 2
 190 255 190 216 192 178 c 0
 195 127 212 110 239 110 c 2
 247 110 l 2
 274 110 291 127 294 178 c 0
 296 216 296 255 296 294 c 2
EndSplineSet
Validated: 1
Position2: "'cpsp' +WSdlh1tXfUQwf3UoMLkw2jD8MLcw8zCw in +MOkwxjDzZYdbVwAA lookup 0 +MLUw1jDGMPww1jDr" dx=5 dy=0 dh=10 dv=0
EndChar

StartChar: P
Encoding: 80 80 16
Width: 482
Flags: W
HStem: 0 21G<47 196> 258 112<196 278.334> 607 113<196 278.334>
VStem: 47 149<0 258 370 607> 290 148<379.289 597.722>
LayerCount: 2
Fore
SplineSet
438 577 m 0
 438 538 438 514 438 495 c 2
 438 482 l 2
 438 463 438 439 438 400 c 0
 438 284 368 258 252 258 c 2
 196 258 l 1
 196 0 l 1
 47 0 l 1
 47 258 l 1
 47 368 l 1
 46 610 l 1
 47 719 l 1
 47 720 l 1
 196 720 l 1
 252 720 l 2
 368 720 438 693 438 577 c 0
196 607 m 1
 196 370 l 1
 286 370 290 378 290 460 c 2
 290 516 l 2
 290 599 286 607 196 607 c 1
EndSplineSet
Validated: 1
Position2: "'cpsp' +WSdlh1tXfUQwf3UoMLkw2jD8MLcw8zCw in +MOkwxjDzZYdbVwAA lookup 0 +MLUw1jDGMPww1jDr" dx=5 dy=0 dh=10 dv=0
EndChar

StartChar: Q
Encoding: 81 81 17
Width: 486
Flags: MW
HStem: 610 120<228 239 239 247>
VStem: 40 150<274.5 294 294 426 274.5 466> 296 150<294 426 426 445.5>
LayerCount: 2
Fore
SplineSet
443 550 m 0
 446 501 446 485 446 466 c 2
 446 254 l 2
 446 235 446 219 443 170 c 0
 437 77 392 24 331 2 c 1
 399 -160 l 1
 255 -160 l 1
 188 -7 l 1
 111 6 50 60 43 170 c 0
 40 219 40 235 40 254 c 2
 40 466 l 2
 40 485 40 501 43 550 c 0
 51 678 133 730 228 730 c 2
 258 730 l 2
 353 730 435 678 443 550 c 0
296 294 m 2
 296 426 l 2
 296 465 296 504 294 542 c 0
 291 593 274 610 247 610 c 2
 239 610 l 2
 212 610 195 593 192 542 c 0
 190 504 190 465 190 426 c 2
 190 294 l 2
 190 255 190 216 192 178 c 0
 195 127 212 110 239 110 c 2
 247 110 l 2
 274 110 291 127 294 178 c 0
 296 216 296 255 296 294 c 2
EndSplineSet
Validated: 1
Position2: "'cpsp' +WSdlh1tXfUQwf3UoMLkw2jD8MLcw8zCw in +MOkwxjDzZYdbVwAA lookup 0 +MLUw1jDGMPww1jDr" dx=5 dy=0 dh=10 dv=0
EndChar

StartChar: R
Encoding: 82 82 18
Width: 500
Flags: W
HStem: 0 21G<46 197 305.171 484> 607 113<197 281.282>
VStem: 46 151<0 258 370 607> 290 148<388.84 598.253>
LayerCount: 2
Fore
SplineSet
197 607 m 1
 197 370 l 1
 278 370 290 395 290 469 c 2
 290 516 l 2
 290 598 286 607 197 607 c 1
438 577 m 0
 438 538 438 514 438 495 c 2
 438 482 l 2
 438 463 438 447 438 408 c 0
 438 337 407 297 360 277 c 1
 484 0 l 1
 313 0 l 1
 212 258 l 1
 197 258 l 1
 197 0 l 1
 196 0 l 1
 46 0 l 1
 46 258 l 1
 46 368 l 1
 46 607 l 1
 46 720 l 1
 196 720 l 1
 197 720 l 1
 255 720 l 2
 371 720 438 697 438 577 c 0
EndSplineSet
Validated: 1
Position2: "'cpsp' +WSdlh1tXfUQwf3UoMLkw2jD8MLcw8zCw in +MOkwxjDzZYdbVwAA lookup 0 +MLUw1jDGMPww1jDr" dx=5 dy=0 dh=10 dv=0
EndChar

StartChar: S
Encoding: 83 83 19
Width: 402
Flags: MW
HStem: 0 110<26 161 26 161 161 185 26 187> 610 110<214.5 232 232 351>
VStem: 32 150<518.5 569 518.5 596> 224 150<160 210.5>
LayerCount: 2
Fore
SplineSet
26 0 m 1
 26 110 l 1
 161 110 l 2
 209 110 224 133 224 187 c 0
 224 234 201 275 142 330 c 0
 67 400 32 454 32 538 c 0
 32 654 83 720 201 720 c 2
 351 720 l 1
 351 610 l 1
 232 610 l 2
 197 610 182 593 182 545 c 0
 182 492 196 471 252 416 c 0
 342 328 374 281 374 179 c 0
 374 61 307 0 187 0 c 2
 26 0 l 1
EndSplineSet
Validated: 1
Position2: "'cpsp' +WSdlh1tXfUQwf3UoMLkw2jD8MLcw8zCw in +MOkwxjDzZYdbVwAA lookup 0 +MLUw1jDGMPww1jDr" dx=5 dy=0 dh=10 dv=0
EndChar

StartChar: T
Encoding: 84 84 20
Width: 446
Flags: MW
HStem: 610 110<18 148 18 428 298 428 298 298>
VStem: 148 150<0 610 0 610>
LayerCount: 2
Fore
SplineSet
428 720 m 1
 428 610 l 1
 298 610 l 1
 298 0 l 1
 148 0 l 1
 148 610 l 1
 18 610 l 1
 18 720 l 1
 428 720 l 1
EndSplineSet
Validated: 1
Position2: "'cpsp' +WSdlh1tXfUQwf3UoMLkw2jD8MLcw8zCw in +MOkwxjDzZYdbVwAA lookup 0 +MLUw1jDGMPww1jDr" dx=5 dy=0 dh=10 dv=0
EndChar

StartChar: U
Encoding: 85 85 21
Width: 506
Flags: W
HStem: -10 120<213.001 300.68> 700 20G<47 197 313 459>
VStem: 47 150<120.442 720> 313 146<120.442 720>
LayerCount: 2
Fore
SplineSet
313 720 m 1
 459 720 l 1
 459 254 l 2
 459 235 459 219 456 170 c 0
 448 42 368 -10 275 -10 c 2
 235 -10 l 2
 140 -10 58 42 50 170 c 0
 47 219 47 235 47 254 c 2
 47 720 l 1
 197 720 l 1
 197 294 l 2
 197 255 197 216 199 178 c 0
 202 127 219 110 246 110 c 2
 264 110 l 2
 291 110 308 127 311 178 c 0
 313 216 313 255 313 294 c 2
 313 720 l 1
EndSplineSet
Validated: 1
Position2: "'cpsp' +WSdlh1tXfUQwf3UoMLkw2jD8MLcw8zCw in +MOkwxjDzZYdbVwAA lookup 0 +MLUw1jDGMPww1jDr" dx=5 dy=0 dh=10 dv=0
EndChar

StartChar: V
Encoding: 86 86 22
Width: 508
Flags: W
HStem: 0 21G<127.194 373.806> 700 20G<29 196.778 304.194 472>
LayerCount: 2
Fore
SplineSet
306 720 m 1
 363.333007812 720 414.666992188 720 472 720 c 1
 371 0 l 1
 259 0 l 1
 241 0 l 1
 130 0 l 1
 29 720 l 1
 86.3330078125 720 137.666992188 720 195 720 c 1
 250.069767442 100.465116279 l 1
 306 720 l 1
EndSplineSet
Validated: 524289
Position2: "'cpsp' +WSdlh1tXfUQwf3UoMLkw2jD8MLcw8zCw in +MOkwxjDzZYdbVwAA lookup 0 +MLUw1jDGMPww1jDr" dx=5 dy=0 dh=10 dv=0
EndChar

StartChar: W
Encoding: 87 87 23
Width: 674
Flags: W
HStem: 0 21G<101.417 254.605 410.757 564.806> 700 20G<11 178.556 495.194 663>
LayerCount: 2
Fore
SplineSet
497 720 m 1
 554 720 606 720 663 720 c 1
 562 0 l 1
 535 0 l 1
 432 0 l 1
 415 0 l 1
 335.873605948 372.936802974 l 1
 250 0 l 1
 233 0 l 1
 137 0 l 1
 104 0 l 1
 11 720 l 1
 68 720 120 720 177 720 c 1
 209.872183856 297.357636137 l 1
 286 608 l 1
 390 608 l 1
 460.283490828 313.294052251 l 1
 497 720 l 1
EndSplineSet
Validated: 524289
Position2: "'cpsp' +WSdlh1tXfUQwf3UoMLkw2jD8MLcw8zCw in +MOkwxjDzZYdbVwAA lookup 0 +MLUw1jDGMPww1jDr" dx=5 dy=0 dh=10 dv=0
EndChar

StartChar: X
Encoding: 88 88 24
Width: 482
Flags: W
HStem: 0 21G<15 181.896 295.606 467> 700 20G<25 196.263 290.311 457>
LayerCount: 2
Fore
SplineSet
327 377 m 5
 467 0 l 5
 301 0 l 5
 236 241 l 5
 177 0 l 5
 15 0 l 5
 155 372 l 5
 25 720 l 5
 191 720 l 5
 246 511 l 5
 295 720 l 5
 457 720 l 5
 327 377 l 5
EndSplineSet
Validated: 1
Position2: "'cpsp' +WSdlh1tXfUQwf3UoMLkw2jD8MLcw8zCw in +MOkwxjDzZYdbVwAA lookup 0 +MLUw1jDGMPww1jDr" dx=5 dy=0 dh=10 dv=0
EndChar

StartChar: Y
Encoding: 89 89 25
Width: 452
Flags: W
HStem: 0 21G<137.429 287.429> 700 20G<-8.57129 145.047 282.886 433.429>
VStem: 137.429 150<0 298>
LayerCount: 2
Fore
SplineSet
433.428710938 720 m 5
 287.428710938 298 l 5
 287.428710938 0 l 5
 137.428710938 0 l 5
 137.428710938 298 l 5
 -8.5712890625 720 l 5
 139.428710938 720 l 5
 214.428710938 453 l 5
 288.428710938 720 l 5
 433.428710938 720 l 5
EndSplineSet
Validated: 524289
Position2: "'cpsp' +WSdlh1tXfUQwf3UoMLkw2jD8MLcw8zCw in +MOkwxjDzZYdbVwAA lookup 0 +MLUw1jDGMPww1jDr" dx=5 dy=0 dh=10 dv=0
EndChar

StartChar: Z
Encoding: 90 90 26
Width: 447
Flags: W
HStem: 0 110<194 423> 610 110<49 243>
LayerCount: 2
Fore
SplineSet
194 110 m 5
 423 110 l 5
 423 0 l 5
 24 0 l 5
 24 67 l 5
 243 610 l 5
 49 610 l 5
 49 720 l 5
 413 720 l 5
 413 653 l 5
 194 110 l 5
EndSplineSet
Validated: 1
Position2: "'cpsp' +WSdlh1tXfUQwf3UoMLkw2jD8MLcw8zCw in +MOkwxjDzZYdbVwAA lookup 0 +MLUw1jDGMPww1jDr" dx=5 dy=0 dh=10 dv=0
EndChar

StartChar: a
Encoding: 97 97 27
Width: 504
Flags: W
HStem: 0 110<190.18 311> 191 110<180.69 306.242> 350 110<58 296.447>
VStem: 40 138<119.393 183.419> 311 150<110 191 301 336.107>
LayerCount: 2
Fore
SplineSet
40 157 m 2
 40 176 41.151273887 166.958598802 42 206 c 0
 43 252 136 301 244 301 c 2
 306.241519908 301 l 1
 305.409929674 338.231297404 275.76402127 350 237 350 c 2
 58 350 l 1
 53 460 l 1
 265 460 l 2
 381 460 453 428 459 310 c 0
 461 271 461 255 461 236 c 2
 461 232 l 1
 461 0 l 1
 323 0 l 1
 311 0 l 1
 244 0 l 2
 136 0 45 33 42 96 c 0
 40.1425603057 135.00623358 40 121 40 140 c 2
 40 148 l 1
 40 153 l 1
 40 157 l 2
311 110 m 1
 311 191 l 1
 236 191 l 2
 211 191 178 177 178 165 c 2
 178 163 l 1
 178 158 l 1
 178 157 l 2
 178 123 211 110 236 110 c 2
 311 110 l 1
EndSplineSet
Validated: 524289
EndChar

StartChar: b
Encoding: 98 98 28
Width: 482
Flags: W
HStem: 1 112<196 278.232> 350 110<196 278.232> 700 20G<46 196>
VStem: 46 150<0 1 113 350 460 720> 290 150<122.289 338.711>
LayerCount: 2
Fore
SplineSet
438 143 m 4
 432 27 368 1 252 1 c 6
 196 1 l 5
 196 0 l 5
 46 0 l 5
 46 1 l 5
 46 111 l 5
 46 352 l 5
 46 462 l 5
 46 720 l 5
 196 720 l 5
 196 460 l 5
 252 460 l 6
 368 460 432 434 438 318 c 4
 440 279 440 257 440 238 c 6
 440 225 l 6
 440 206 440 182 438 143 c 4
196 113 m 5
 286 114 290 122 290 204 c 6
 290 259 l 6
 290 341 286 349 196 350 c 5
 196 113 l 5
EndSplineSet
Validated: 1
EndChar

StartChar: c
Encoding: 99 99 29
Width: 419
Flags: W
HStem: 0 110<209.629 391> 350 110<209.629 391>
VStem: 40 150<128.87 331.13>
LayerCount: 2
Fore
SplineSet
190 211 m 6
 190 132 211 110 264 110 c 6
 391 110 l 5
 391 0 l 5
 236 0 l 6
 120 0 48 32 42 150 c 4
 40 189 40 205 40 224 c 6
 40 236 l 6
 40 255 40 271 42 310 c 4
 48 428 120 460 236 460 c 6
 391 460 l 5
 391 350 l 5
 264 350 l 6
 211 350 190 328 190 249 c 6
 190 211 l 6
EndSplineSet
Validated: 1
EndChar

StartChar: d
Encoding: 100 100 30
Width: 482
Flags: W
HStem: 1 112<203.768 286> 350 110<203.768 286> 700 20G<286 436>
VStem: 42 150<122.289 338.711> 286 150<0 1 113 350 460 720>
LayerCount: 2
Fore
SplineSet
44 143 m 4
 42 182 42 206 42 225 c 6
 42 238 l 6
 42 257 42 279 44 318 c 4
 50 434 114 460 230 460 c 6
 286 460 l 5
 286 720 l 5
 436 720 l 5
 436 462 l 5
 436 352 l 5
 436 111 l 5
 436 1 l 5
 436 0 l 5
 286 0 l 5
 286 1 l 5
 230 1 l 6
 114 1 50 27 44 143 c 4
286 113 m 5
 286 350 l 5
 196 349 192 341 192 259 c 6
 192 204 l 6
 192 122 196 114 286 113 c 5
EndSplineSet
Validated: 1
EndChar

StartChar: e
Encoding: 101 101 31
Width: 504
Flags: W
HStem: 0 110<209.629 413> 171 110<192.481 320.977> 350 110<209.816 302.867>
LayerCount: 2
Fore
SplineSet
459 310 m 4
 460.7265625 270.987304688 461 255 461 236 c 6
 461 171 l 5
 192.481445312 171 l 5
 199.415039062 124.250976562 221.34375 110 264 110 c 6
 413 110 l 5
 418 0 l 5
 236 0 l 6
 120 0 48 32 42 150 c 4
 40 189 40 205 40 224 c 6
 40 236 l 6
 40 255 40.318359375 270.985351562 42 310 c 4
 47 426 130 460 228 460 c 6
 259 460 l 6
 366.096679688 459.540039062 454.03125 422.301757812 459 310 c 4
265 350 m 6
 256 350 l 6
 221.333984375 350 198.106445312 332.842773438 191.756835938 281 c 5
 320.9765625 281 l 5
 313.436523438 335.465820312 286.311523438 350 265 350 c 6
EndSplineSet
Validated: 524289
EndChar

StartChar: f
Encoding: 102 102 32
Width: 360
Flags: W
HStem: 0 21G<72 222> 350 110<18 72 222 332> 610 110<241.629 343>
VStem: 72 150<0 350 460 591.13>
LayerCount: 2
Fore
SplineSet
222 0 m 1
 72 0 l 1
 72 350 l 1
 18 350 l 1
 18 460 l 1
 72 460 l 1
 72 496 l 2
 72 515 72 531 74 570 c 0
 80 688 152 720 268 720 c 2
 343 720 l 1
 343 610 l 1
 296 610 l 2
 243 610 222 588 222 509 c 2
 222 460 l 1
 332 460 l 1
 332 350 l 1
 222 350 l 1
 222 0 l 1
EndSplineSet
Validated: 1
EndChar

StartChar: g
Encoding: 103 103 33
Width: 471
Flags: W
HStem: -201 110<87 254.371> 0 110<199.629 273.88> 350 110<199.629 274>
VStem: 30 150<128.87 331.13> 274 150<-72.1304 -1.42109e-014 110 350>
LayerCount: 2
Fore
SplineSet
180 211 m 2
 180 132 201 110 254 110 c 2
 274 110 l 1
 274 350 l 1
 254 350 l 2
 201 350 180 328 180 249 c 2
 180 211 l 2
273.879603525 -1.05818132035e-014 m 1
 226 0 l 2
 110 0 38 32 32 150 c 0
 30 189 30 205 30 224 c 2
 30 236 l 2
 30 255 30 271 32 310 c 0
 38 428 110 460 226 460 c 2
 274 460 l 1
 381 460 l 1
 424 460 l 1
 424 23 l 2
 424 4 424 -12 422 -51 c 0
 416 -169 344 -201 228 -201 c 2
 87 -201 l 1
 87 -91 l 1
 200 -91 l 2
 250.691831373 -91 272.110192979 -70.8744895357 273.879603525 -1.05818132035e-014 c 1
EndSplineSet
Validated: 524289
EndChar

StartChar: h
Encoding: 104 104 34
Width: 484
Flags: W
HStem: 0 21G<47 197 291 441> 350 110<197 271.371> 700 20G<47 197>
VStem: 47 150<0 350 460 720> 291 150<0 331.13>
LayerCount: 2
Fore
SplineSet
197 0 m 1
 47 0 l 1
 47 720 l 1
 197 720 l 1
 197 460 l 1
 245 460 l 2
 361 460 433 428 439 310 c 0
 441 271 441 255 441 236 c 2
 441 222 l 1
 441 0 l 1
 291 0 l 1
 291 222 l 1
 291 246 l 1
 291 249 l 2
 291 328 270 350 217 350 c 2
 197 350 l 1
 197 0 l 1
EndSplineSet
Validated: 1
EndChar

StartChar: i
Encoding: 105 105 35
Width: 244
Flags: W
HStem: 0 21G<47 197> 440 20G<47 197> 521 150<47 197>
VStem: 47 150<0 460 521 671>
LayerCount: 2
Fore
SplineSet
47 521 m 5
 47 671 l 5
 197 671 l 5
 197 521 l 5
 47 521 l 5
47 0 m 5
 47 460 l 5
 197 460 l 5
 197 0 l 5
 47 0 l 5
EndSplineSet
Validated: 1
EndChar

StartChar: j
Encoding: 106 106 36
Width: 266
Flags: HMW
HStem: 0 110<-52 -5 -5 21.5 -52 23 -52 -5>
VStem: 69 150<214.5 224 224 720>
LayerCount: 2
Fore
SplineSet
69 521 m 1
 69 671 l 1
 219 671 l 1
 219 521 l 1
 69 521 l 1
69 460 m 1
 219 460 l 1
 219 24 l 2
 219 5 219 -11 217 -50 c 0
 211 -168 139 -200 23 -200 c 2
 -52 -200 l 1
 -52 -90 l 1
 -5 -90 l 2
 48 -90 69 -68 69 11 c 2
 69 460 l 1
EndSplineSet
Validated: 1
EndChar

StartChar: l
Encoding: 108 108 37
Width: 244
Flags: MW
HStem: 0 720<47 197 47 197>
VStem: 47 150<0 720 0 720>
LayerCount: 2
Fore
SplineSet
47 0 m 5
 47 720 l 5
 197 720 l 5
 197 0 l 5
 47 0 l 5
EndSplineSet
Validated: 1
EndChar

StartChar: m
Encoding: 109 109 38
Width: 683
Flags: W
HStem: 0 21G<47 197 266 416 488 638> 350 110<197 252.91 407.19 474.91>
VStem: 47 150<0 350> 266 150<0 340.09> 488 150<0 338.736>
LayerCount: 2
Fore
SplineSet
47 0 m 5
 47 460 l 5
 261 460 l 6
 303.943359375 460 335.561523438 447.362304688 358.448242188 428.537109375 c 5
 387.50390625 450.653320312 427.669921875 460 442 460 c 6
 466 460 l 5
 483 460 l 6
 589 460 627 419 634 326 c 4
 638 276 638 229 638 173 c 6
 638 0 l 5
 488 0 l 5
 488 152 l 6
 488 206 488 238 485 283 c 4
 481 340 465 350 427 350 c 6
 406.413085938 350 l 5
 408.555664062 341.793945312 410.514648438 333.756835938 411 326 c 4
 414.114257812 276.213867188 416 212 416 173 c 6
 416 0 l 5
 266 0 l 5
 266 152 l 6
 266 206 266 238 263 283 c 4
 259 340 243 350 205 350 c 6
 197 350 l 5
 197 0 l 5
 47 0 l 5
EndSplineSet
Validated: 524289
EndChar

StartChar: n
Encoding: 110 110 39
Width: 491
Flags: W
HStem: 0 21G<47 197 297 447> 350 110<197 283.91>
VStem: 47 150<0 350> 297 150<0 338.736>
LayerCount: 2
Fore
SplineSet
47 0 m 5
 47 460 l 5
 292 460 l 6
 398 460 436 419 443 326 c 4
 447 276 447 229 447 173 c 6
 447 0 l 5
 297 0 l 5
 297 152 l 6
 297 206 297 238 294 283 c 4
 290 340 274 350 236 350 c 6
 197 350 l 5
 197 0 l 5
 47 0 l 5
EndSplineSet
Validated: 1
EndChar

StartChar: o
Encoding: 111 111 40
Width: 486
Flags: W
HStem: -10 120<206.001 279.999> 340 120<206.001 279.999>
VStem: 40 150<120.442 329.558> 296 150<120.442 329.558>
LayerCount: 2
Fore
SplineSet
443 280 m 4
 446 231 446 246 446 227 c 6
 446 209 l 6
 446 190 446 219 443 170 c 4
 435 42 353 -10 258 -10 c 6
 228 -10 l 6
 133 -10 51 42 43 170 c 4
 40 219 40 190 40 209 c 6
 40 227 l 6
 40 246 40 231 43 280 c 4
 51 408 133 460 228 460 c 6
 258 460 l 6
 353 460 435 408 443 280 c 4
296 207 m 6
 296 242 l 6
 296 251 296 234 294 272 c 4
 291 323 274 340 247 340 c 6
 239 340 l 6
 212 340 195 323 192 272 c 4
 190 234 190 250 190 242 c 6
 190 207 l 6
 190 197 190 216 192 178 c 4
 195 127 212 110 239 110 c 6
 247 110 l 6
 274 110 291 127 294 178 c 4
 296 216 296 196 296 207 c 6
EndSplineSet
Validated: 1
EndChar

StartChar: p
Encoding: 112 112 41
Width: 482
Flags: W
HStem: 0.171875 111.828<196 278.283> 349.344 111.828<196 278.283>
VStem: 46 150<-200 0.171875 112 349.344 461.172 462> 290 150<121.442 339.902>
LayerCount: 2
Fore
SplineSet
438 319.171875 m 4
 439.017578125 280.172851562 440 256.171875 440 237.171875 c 6
 440 224.171875 l 6
 440 205.171875 439.017578125 181.170898438 438 142.171875 c 4
 434.970266632 26.0563260166 368 0.171875 252 0.171875 c 6
 196 0.171875 l 5
 196 -200 l 5
 46 -200 l 5
 46 0.171875 l 5
 46 110.171875 l 5
 46 351.171875 l 5
 46 461.171875 l 5
 46 462 l 5
 196 462 l 5
 196 461.171875 l 5
 252 461.171875 l 6
 368 461.171875 434.970266632 435.287423983 438 319.171875 c 4
196 349.34375 m 5
 196 112 l 5
 286.174804688 112.658203125 290 120.794921875 290 203.171875 c 6
 290 258.171875 l 6
 290 340.548828125 286.174804688 348.685546875 196 349.34375 c 5
EndSplineSet
Validated: 524289
EndChar

StartChar: q
Encoding: 113 113 42
Width: 482
Flags: W
HStem: 0.171875 111.828<203.717 286> 349.344 111.828<203.717 286>
VStem: 42 150<121.442 339.902> 286 150<-200 0.171875 112 349.344 461.172 462>
LayerCount: 2
Fore
SplineSet
286 349.34375 m 5
 195.825195312 348.685546875 192 340.548828125 192 258.171875 c 6
 192 203.171875 l 6
 192 120.794921875 195.825195312 112.658203125 286 112 c 5
 286 349.34375 l 5
44 319.171875 m 4
 47.0297333677 435.287423983 114 461.171875 230 461.171875 c 6
 286 461.171875 l 5
 286 462 l 5
 436 462 l 5
 436 461.171875 l 5
 436 351.171875 l 5
 436 110.171875 l 5
 436 0.171875 l 5
 436 -200 l 5
 286 -200 l 5
 286 0.171875 l 5
 230 0.171875 l 6
 114 0.171875 47.0297333677 26.0563260166 44 142.171875 c 4
 42.982421875 181.170898438 42 205.171875 42 224.171875 c 6
 42 237.171875 l 6
 42 256.171875 42.982421875 280.172851562 44 319.171875 c 4
EndSplineSet
Validated: 524289
EndChar

StartChar: r
Encoding: 114 114 43
Width: 453
Flags: W
HStem: 0 21G<47 197> 308 152<252.847 359> 350 110<197 253.403>
VStem: 47 150<0 350>
LayerCount: 2
Fore
SplineSet
259.905273438 308 m 5xd0
 252.979492188 343.087890625 236.592773438 350 205 350 c 6
 197 350 l 5
 197 0 l 5
 47 0 l 5
 47 460 l 5xb0
 261 460 l 6
 367 460 405 419 412 326 c 4
 412.483398438 319.962890625 412.907226562 313.970703125 413.28125 308 c 5
 259.905273438 308 l 5xd0
EndSplineSet
Validated: 524289
EndChar

StartChar: s
Encoding: 115 115 44
Width: 402
Flags: W
HStem: 0 109<26 219.341> 350 110<184.846 351>
VStem: 32 150<286.866 345.192> 224 150<112.997 170.828>
LayerCount: 2
Fore
SplineSet
26 0 m 1
 26 109 l 1
 161 109 l 2
 209 109 224 114 224 147 c 0
 224 167 191 177 142 199 c 0
 90 222 32 245 32 313 c 0
 32 398 83 460 201 460 c 2
 351 460 l 1
 351 350 l 1
 232 350 l 2
 197 350 182 340 182 317 c 0
 182 294 216 277 252 265 c 0
 303 248 374 201 374 140 c 0
 374 41 307 0 187 0 c 2
 26 0 l 1
EndSplineSet
Validated: 1
EndChar

StartChar: t
Encoding: 116 116 45
Width: 413
Flags: W
HStem: 0 110<261.629 348> 350 110<18 92 242 360>
VStem: 92 150<128.87 350 460 610>
LayerCount: 2
Fore
SplineSet
18 350 m 1
 18 460 l 1
 92 460 l 1
 92 610 l 1
 242 610 l 1
 242 460 l 1
 360 460 l 1
 360 350 l 1
 242 350 l 1
 242 211 l 2
 242 132 263 110 316 110 c 2
 348 110 l 1
 348 0 l 1
 288 0 l 2
 172 0 100 32 94 150 c 0
 92 189 92 205 92 224 c 2
 92 350 l 1
 18 350 l 1
EndSplineSet
Validated: 1
EndChar

StartChar: u
Encoding: 117 117 46
Width: 491
Flags: W
HStem: 0 110<210.09 297> 440 20G<47 197 297 447>
VStem: 47 150<121.264 460> 297 150<110 460>
LayerCount: 2
Fore
SplineSet
447 460 m 5
 447 0 l 5
 202 0 l 6
 96 0 58 41 51 134 c 4
 47 184 47 231 47 287 c 6
 47 460 l 5
 197 460 l 5
 197 308 l 6
 197 254 197 222 200 177 c 4
 204 120 220 110 258 110 c 6
 297 110 l 5
 297 460 l 5
 447 460 l 5
EndSplineSet
Validated: 1
EndChar

StartChar: y
Encoding: 121 121 47
Width: 1000
Flags: HM
LayerCount: 2
Back
SplineSet
296 720 m 1xd0
 442 720 l 1
 442 658 l 2
 442 571 435 518 387 403 c 2x90
 318 236 l 1
 318 0 l 1
 158 0 l 1
 158 231 l 1xa0
 86 412 l 2
 42 522 33 572 33 658 c 2
 33 720 l 1
 183 720 l 1
 183 653 l 2
 183 565 195 508 209 470 c 2
 239 388 l 1
 271 470 l 2
 288 515 296 565 296 653 c 2
 296 720 l 1xd0
EndSplineSet
Fore
Validated: 1
EndChar

StartChar: z
Encoding: 122 122 48
Width: 447
Flags: W
HStem: 0 110<210 423> 350 110<24 235>
LayerCount: 2
Fore
SplineSet
210 110 m 5
 423 110 l 5
 423 0 l 5
 24 0 l 5
 24 83 l 5
 235 350 l 5
 24 350 l 5
 24 460 l 5
 415 460 l 5
 415 377 l 5
 210 110 l 5
EndSplineSet
Validated: 1
EndChar

StartChar: O_half
Encoding: 257 -1 49
Width: 516
Flags: MW
HStem: -10 120<185.5 248 244 248 244 248> 610 120<233 244 244 248>
VStem: 45 150<274.5 294 294 426 274.5 466>
LayerCount: 2
Fore
SplineSet
195 426 m 2
 195 294 l 2
 195 255 195 216 197 178 c 0
 200 127 217 110 244 110 c 2
 248 110 l 1
 248 -10 l 1
 233 -10 l 2
 138 -10 56 42 48 170 c 0
 45 219 45 235 45 254 c 2
 45 466 l 2
 45 485 45 501 48 550 c 0
 56 678 138 730 233 730 c 2
 248 730 l 1
 248 610 l 1
 244 610 l 2
 217 610 200 593 197 542 c 0
 195 504 195 465 195 426 c 2
EndSplineSet
Validated: 1
EndChar

StartChar: zero
Encoding: 48 48 50
Width: 476
Flags: MW
HStem: -10 120<179.5 242 234 242 242 251.5 234 253> 610 120<224.5 234 234 242>
VStem: 43 150<254 259 375 426> 283 150<294 347 347 347 463 466>
LayerCount: 2
Fore
SplineSet
430 550 m 0
 433 501 433 485 433 466 c 2
 433 254 l 2
 433 235 433 219 430 170 c 0
 422 42 340 -10 253 -10 c 2
 223 -10 l 2
 136 -10 54 42 46 170 c 0
 43 219 43 235 43 254 c 2
 43 466 l 2
 43 485 43 501 46 550 c 0
 54 678 136 730 223 730 c 2
 253 730 l 2
 340 730 422 678 430 550 c 0
195 542 m 0
 193 504 193 465 193 426 c 2
 193 375 l 1
 283 463 l 1
 283 490 282 516 281 542 c 0
 278 593 261 610 242 610 c 2
 234 610 l 2
 215 610 198 593 195 542 c 0
281 178 m 0
 283 216 283 255 283 294 c 2
 283 347 l 1
 193 259 l 1
 193 232 194 205 195 178 c 0
 198 127 215 110 234 110 c 2
 242 110 l 2
 261 110 278 127 281 178 c 0
EndSplineSet
Validated: 1
EndChar

StartChar: one
Encoding: 49 49 51
Width: 476
Flags: MW
HStem: 0 720<263 381 263 381 231 381>
VStem: 231 150<0 599 599 599>
LayerCount: 2
Fore
SplineSet
263 720 m 2
 381 720 l 1
 381 0 l 1
 231 0 l 1
 231 599 l 1
 64 511 l 1
 64 634 l 1
 181 699 l 2
 212 716 229 720 263 720 c 2
EndSplineSet
Validated: 1
EndChar

StartChar: two
Encoding: 50 50 52
Width: 476
Flags: MW
HStem: 0 110<226 451 226 451> 620 110<216 249 233 243>
VStem: 44 150<494 519 519 529 494 591.5> 276 150<520.5 563.5>
LayerCount: 2
Fore
SplineSet
226 110 m 1
 451 110 l 1
 451 0 l 1
 42 0 l 1
 42 72 l 1
 215 370 l 2
 265 457 276 498 276 543 c 0
 276 584 274 620 243 620 c 2
 231 620 l 2
 201 620 194 586 194 529 c 2
 194 494 l 1
 44 494 l 1
 44 519 l 2
 44 664 91 730 233 730 c 2
 249 730 l 2
 390 730 426 654 426 559 c 0
 426 479 411 432 329 289 c 2
 226 110 l 1
EndSplineSet
Validated: 1
EndChar

StartChar: three
Encoding: 51 51 53
Width: 476
Flags: W
HStem: 0 110<41 248.371> 610 110<46 215>
VStem: 268 150<128.87 317.619>
LayerCount: 2
Fore
SplineSet
274 433 m 1
 382 426 418 361 418 244 c 2
 418 224 l 2
 418 205 418 189 416 150 c 0
 410 32 338 0 222 0 c 2
 41 0 l 1
 41 110 l 1
 194 110 l 2
 247 110 268 132 268 211 c 2
 268 236 l 2
 268 320 246 338 183 338 c 2
 98 338 l 1
 98 405 l 1
 215 610 l 1
 46 610 l 1
 46 720 l 1
 405 720 l 1
 405 653 l 1
 274 433 l 1
EndSplineSet
Validated: 1
EndChar

StartChar: four
Encoding: 52 52 54
Width: 476
Flags: MW
HStem: 185 110<211 284>
VStem: 284 150<0 185 185 185>
LayerCount: 2
Fore
SplineSet
461 720 m 1
 211 295 l 1
 434 295 l 1
 434 0 l 1
 284 0 l 1
 284 185 l 1
 8 185 l 1
 8 240 l 1
 283 720 l 1
 461 720 l 1
EndSplineSet
Validated: 1
EndChar

StartChar: five
Encoding: 53 53 55
Width: 476
Flags: MW
HStem: 0 110<58 187 58 187 187 215.5 58 226> 610 110<223 388 223 223>
VStem: 73 150<517 533 533 610 517 720> 262 150<165.5 224>
LayerCount: 2
Fore
SplineSet
58 0 m 1
 58 110 l 1
 187 110 l 2
 244 110 262 136 262 195 c 0
 262 253 249 279 204 318 c 2
 144 371 l 2
 99 410 73 442 73 508 c 2
 73 720 l 1
 388 720 l 1
 388 610 l 1
 223 610 l 1
 223 533 l 2
 223 501 233 485 257 464 c 2
 333 395 l 2
 394 340 412 297 412 193 c 0
 412 43 337 0 226 0 c 2
 58 0 l 1
EndSplineSet
Validated: 1
EndChar

StartChar: six
Encoding: 54 54 56
Width: 476
Flags: MW
HStem: -10 110<172.5 244 236 244 244 247>
VStem: 38 150<159.5 225 159.5 238.5> 291 150<162 216.5>
LayerCount: 2
Fore
SplineSet
233 -10 m 2
 112 -10 38 58 38 193 c 0
 38 284 53 344 97 476 c 2
 178 720 l 1
 335 720 l 1
 222 381 l 2
 201 317 188 254 188 196 c 0
 188 123 209 100 236 100 c 2
 244 100 l 2
 270 100 291 128 291 196 c 0
 291 237 290 277 287 322 c 1
 434 322 l 1
 439 276 441 237 441 203 c 0
 441 50 357 -10 247 -10 c 2
 233 -10 l 2
EndSplineSet
Validated: 1
EndChar

StartChar: seven
Encoding: 55 55 57
Width: 476
Flags: MW
HStem: 610 110<32 263 32 440>
VStem: 32 408<661 720 661 720 661 720>
LayerCount: 2
Fore
SplineSet
32 720 m 1
 440 720 l 1
 440 661 l 1
 197 0 l 1
 43 0 l 1
 263 610 l 1
 32 610 l 1
 32 720 l 1
EndSplineSet
Validated: 1
EndChar

StartChar: eight
Encoding: 56 56 58
Width: 476
Flags: MW
HStem: -10 110<155.5 242 228 240> 620 110<229.5 248 240 247>
VStem: 33 150<151 208 151 222.5> 55 150<538 576.5 537 605> 280 150<523 580> 293 150<157 201.5 118.5 208>
LayerCount: 2
Fore
SplineSet
226 -10 m 2xe4
 85 -10 33 50 33 171 c 0xe4
 33 274 62 327 199 425 c 0
 266 473 280 493 280 553 c 0
 280 607 266 620 247 620 c 2
 239 620 l 2
 220 620 205 604 205 549 c 0
 205 525 206 499 208 466 c 1
 59 466 l 1
 56 500 55 529 55 547 c 0
 55 663 122 730 240 730 c 2
 248 730 l 2
 367 730 430 663 430 554 c 0xd8
 430 464 398 415 286 330 c 0
 199 264 183 237 183 179 c 0
 183 123 199 100 228 100 c 2
 242 100 l 2
 273 100 293 125 293 189 c 0
 293 227 292 252 288 296 c 1
 436 296 l 1
 441 253 443 221 443 182 c 0
 443 55 378 -10 240 -10 c 2
 226 -10 l 2xe4
EndSplineSet
Validated: 1
EndChar

StartChar: nine
Encoding: 57 57 59
Width: 476
Flags: MW
HStem: 620 110<229 232 232 240>
VStem: 35 150<503.5 558 503.5 593.5> 288 150<495 560.5>
LayerCount: 2
Fore
SplineSet
243 730 m 2
 364 730 438 662 438 527 c 0
 438 436 423 376 379 244 c 2
 298 0 l 1
 141 0 l 1
 254 339 l 2
 275 403 288 466 288 524 c 0
 288 597 267 620 240 620 c 2
 232 620 l 2
 206 620 185 592 185 524 c 0
 185 483 186 443 189 398 c 1
 42 398 l 1
 37 444 35 483 35 517 c 0
 35 670 119 730 229 730 c 2
 243 730 l 2
EndSplineSet
Validated: 1
EndChar

StartChar: colon
Encoding: 58 58 60
Width: 250
Flags: MW
HStem: 110 150<35 185 35 185> 460 150<35 185 35 185>
VStem: 35 150<110 260 110 260 460 610>
LayerCount: 2
Fore
SplineSet
35 460 m 1
 35 610 l 1
 185 610 l 1
 185 460 l 1
 35 460 l 1
35 110 m 1
 35 260 l 1
 185 260 l 1
 185 110 l 1
 35 110 l 1
EndSplineSet
Validated: 1
EndChar

StartChar: comma
Encoding: 44 44 61
Width: 250
Flags: MW
HStem: 0 150<35 109 35 185>
VStem: 35 150<20.5 35 35 150 20.5 150>
LayerCount: 2
Fore
SplineSet
63 -128 m 1
 109 0 l 1
 35 0 l 1
 35 150 l 1
 185 150 l 1
 185 35 l 2
 185 6 181 -15 171 -42 c 2
 139 -128 l 1
 63 -128 l 1
EndSplineSet
Validated: 1
EndChar

StartChar: exclam
Encoding: 33 33 62
Width: 244
Flags: MW
HStem: 0 150<47 197 47 197>
VStem: 47 150<0 150 0 150 240 720>
LayerCount: 2
Fore
SplineSet
47 240 m 1
 47 720 l 1
 197 720 l 1
 197 240 l 1
 47 240 l 1
47 0 m 1
 47 150 l 1
 197 150 l 1
 197 0 l 1
 47 0 l 1
EndSplineSet
Validated: 1
EndChar

StartChar: numbersign
Encoding: 35 35 63
Width: 476
Flags: MW
HStem: 229 62<58 112 58 124 194 241 58 182 323 378> 429 62<98 150 98 162 98 220 232 279 361 418>
VStem: 58 360<229 429 291 429>
LayerCount: 2
Fore
SplineSet
418 429 m 1
 349 429 l 1
 323 291 l 1
 378 291 l 1
 378 229 l 1
 311 229 l 1
 266 0 l 1
 196 0 l 1
 241 229 l 1
 182 229 l 1
 137 0 l 1
 67 0 l 1
 112 229 l 1
 58 229 l 1
 58 291 l 1
 124 291 l 1
 150 429 l 1
 98 429 l 1
 98 491 l 1
 162 491 l 1
 207 720 l 1
 277 720 l 1
 232 491 l 1
 291 491 l 1
 336 720 l 1
 406 720 l 1
 361 491 l 1
 418 491 l 1
 418 429 l 1
253 291 m 1
 279 429 l 1
 220 429 l 1
 194 291 l 1
 253 291 l 1
EndSplineSet
Validated: 1
EndChar

StartChar: period
Encoding: 46 46 64
Width: 250
Flags: MW
HStem: 0 150<35 185 35 185>
VStem: 35 150<0 150 0 150>
LayerCount: 2
Fore
SplineSet
35 0 m 1
 35 150 l 1
 185 150 l 1
 185 0 l 1
 35 0 l 1
EndSplineSet
Validated: 1
EndChar

StartChar: question
Encoding: 63 63 65
Width: 444
Flags: MW
HStem: 0 150<146 296 146 296> 620 110<205 234 220 229>
VStem: 32 150<546 578 543.5 611.5> 146 150<0 150 0 150 240 256 256 268 0 283> 257 150<547 577.5>
LayerCount: 2
Fore
SplineSet
146 240 m 1xd0
 146 256 l 2
 146 310 158 337 194 400 c 2xd0
 221 447 l 2
 247 492 257 524 257 559 c 0
 257 596 249 620 229 620 c 2
 215 620 l 2
 195 620 182 600 182 556 c 0
 182 531 182 516 183 495 c 1
 35 495 l 1
 33 516 32 535 32 557 c 0
 32 666 89 730 220 730 c 2
 234 730 l 2
 358 730 407 666 407 570 c 0
 407 524 398 487 362 423 c 2xe8
 313 335 l 2
 299 309 296 289 296 268 c 2
 296 240 l 1
 146 240 l 1xd0
146 0 m 5
 146 150 l 5
 296 150 l 5
 296 0 l 5
 146 0 l 5
EndSplineSet
Validated: 1
EndChar

StartChar: quotedbl
Encoding: 34 34 66
Width: 432
Flags: MW
HStem: 570 150<27 101 27 177 27 227 227 301>
VStem: 27 150<590.5 605 605 720 590.5 720> 227 150<590.5 605 605 720 590.5 720>
LayerCount: 2
Fore
SplineSet
55 442 m 1
 101 570 l 1
 27 570 l 1
 27 720 l 1
 177 720 l 1
 177 605 l 2
 177 576 173 555 163 528 c 2
 131 442 l 1
 55 442 l 1
255 442 m 1
 301 570 l 1
 227 570 l 1
 227 720 l 1
 377 720 l 1
 377 605 l 2
 377 576 373 555 363 528 c 2
 331 442 l 1
 255 442 l 1
EndSplineSet
Validated: 1
EndChar

StartChar: quotesingle
Encoding: 39 39 67
Width: 232
Flags: MW
HStem: 570 150<27 101 27 177>
VStem: 27 150<590.5 605 605 720 590.5 720>
LayerCount: 2
Fore
SplineSet
55 442 m 1
 101 570 l 1
 27 570 l 1
 27 720 l 1
 177 720 l 1
 177 605 l 2
 177 576 173 555 163 528 c 2
 131 442 l 1
 55 442 l 1
EndSplineSet
Validated: 1
EndChar

StartChar: semicolon
Encoding: 59 59 68
Width: 250
Flags: MW
HStem: 110 150<35 109 35 185> 460 150<35 185 35 185>
VStem: 35 150<130.5 145 145 260 130.5 260 460 610>
LayerCount: 2
Fore
SplineSet
35 460 m 1
 35 610 l 1
 185 610 l 1
 185 460 l 1
 35 460 l 1
63 -18 m 1
 109 110 l 1
 35 110 l 1
 35 260 l 1
 185 260 l 1
 185 145 l 2
 185 116 181 95 171 68 c 2
 139 -18 l 1
 63 -18 l 1
EndSplineSet
Validated: 1
EndChar

StartChar: slash
Encoding: 47 47 69
Width: 386
Flags: MW
HStem: -29 778<68 318 68 318>
VStem: 68 250
LayerCount: 2
Fore
SplineSet
68 -29 m 1
 248 749 l 1
 318 749 l 1
 138 -29 l 1
 68 -29 l 1
EndSplineSet
Validated: 1
EndChar

StartChar: underscore
Encoding: 95 95 70
Width: 390
Flags: MW
HStem: -91 62<40 350 40 350>
VStem: 40 310<-91 -29 -91 -29>
LayerCount: 2
Fore
SplineSet
40 -91 m 1
 40 -29 l 1
 350 -29 l 1
 350 -91 l 1
 40 -91 l 1
EndSplineSet
Validated: 1
EndChar

StartChar: braceleft
Encoding: 123 123 71
Width: 366
Flags: MW
HStem: -92 62<240 310 290 310 290 310> 750 62<280 290 290 310>
VStem: 130 70<211 277.5 442.5 509>
LayerCount: 2
Fore
SplineSet
200 456 m 0
 200 418 196 398 174 377 c 2
 156 360 l 1
 174 343 l 2
 196 322 200 302 200 264 c 0
 200 158 200 126 204 73 c 0
 209 3 243 -30 290 -30 c 2
 310 -30 l 1
 310 -92 l 1
 280 -92 l 2
 200 -92 145 -42 135 68 c 0
 131 114 130 148 130 267 c 0
 130 288 126 310 101 329 c 2
 80 345 l 1
 80 375 l 1
 101 391 l 2
 126 410 130 432 130 453 c 0
 130 572 131 606 135 652 c 0
 145 762 200 812 280 812 c 2
 310 812 l 1
 310 750 l 1
 290 750 l 2
 243 750 209 717 204 647 c 0
 200 594 200 562 200 456 c 0
EndSplineSet
Validated: 1
EndChar

StartChar: braceright
Encoding: 125 125 72
Width: 366
Flags: MW
HStem: -92 62<56 76 76 86 56 76> 750 62<56 76 56 86>
VStem: 166 70<211 277.5 207.5 283 442.5 509>
LayerCount: 2
Fore
SplineSet
265 391 m 2
 286 375 l 1
 286 345 l 1
 265 329 l 2
 240 310 236 288 236 267 c 0
 236 148 235 114 231 68 c 0
 221 -42 166 -92 86 -92 c 2
 56 -92 l 1
 56 -30 l 1
 76 -30 l 2
 123 -30 157 3 162 73 c 0
 166 126 166 158 166 264 c 0
 166 302 170 322 192 343 c 2
 210 360 l 1
 192 377 l 2
 170 398 166 418 166 456 c 0
 166 562 166 594 162 647 c 0
 157 717 123 750 76 750 c 2
 56 750 l 1
 56 812 l 1
 86 812 l 2
 166 812 221 762 231 652 c 0
 235 606 236 572 236 453 c 0
 236 432 240 410 265 391 c 2
EndSplineSet
Validated: 1
EndChar

StartChar: bracketleft
Encoding: 91 91 73
Width: 376
Flags: MW
HStem: -92 62<190 320 190 320> 750 62<190 320 190 190>
VStem: 120 70<-30 750 -30 812 -30 812>
LayerCount: 2
Fore
SplineSet
320 750 m 1
 190 750 l 1
 190 -30 l 1
 320 -30 l 1
 320 -92 l 1
 120 -92 l 1
 120 812 l 1
 320 812 l 1
 320 750 l 1
EndSplineSet
Validated: 1
EndChar

StartChar: bracketright
Encoding: 93 93 74
Width: 376
Flags: MW
HStem: -92 62<56 186 56 256 56 186> 750 62<56 186 56 256>
VStem: 186 70<-30 750 750 750>
LayerCount: 2
Fore
SplineSet
256 812 m 1
 256 -92 l 1
 56 -92 l 1
 56 -30 l 1
 186 -30 l 1
 186 750 l 1
 56 750 l 1
 56 812 l 1
 256 812 l 1
EndSplineSet
Validated: 1
EndChar

StartChar: parenleft
Encoding: 40 40 75
Width: 356
Flags: MW
HStem: -92 62<230 300 280 300 280 300> 750 62<270 280 280 300>
VStem: 125 70
LayerCount: 2
Fore
SplineSet
280 750 m 2
 233 750 200 720 195 650 c 0
 190 585 190 539 190 360 c 0
 190 181 190 135 195 70 c 0
 200 0 233 -30 280 -30 c 2
 300 -30 l 1
 300 -92 l 1
 270 -92 l 2
 190 -92 135 -42 125 68 c 0
 121 120 120 168 120 360 c 0
 120 552 121 600 125 652 c 0
 135 762 190 812 270 812 c 2
 300 812 l 1
 300 750 l 1
 280 750 l 2
EndSplineSet
Validated: 1
EndChar

StartChar: parenright
Encoding: 41 41 76
Width: 356
Flags: MW
HStem: -92 62<56 76 76 86 56 76> 750 62<56 76 56 86>
VStem: 161 70
LayerCount: 2
Fore
SplineSet
231 652 m 0
 235 600 236 552 236 360 c 0
 236 168 235 120 231 68 c 0
 221 -42 166 -92 86 -92 c 2
 56 -92 l 1
 56 -30 l 1
 76 -30 l 2
 123 -30 156 0 161 70 c 0
 166 135 166 181 166 360 c 0
 166 539 166 585 161 650 c 0
 156 720 123 750 76 750 c 2
 56 750 l 1
 56 812 l 1
 86 812 l 2
 166 812 221 762 231 652 c 0
EndSplineSet
Validated: 1
EndChar

StartChar: hyphen
Encoding: 45 45 77
Width: 330
Flags: MW
HStem: 329 62<40 290 40 290>
VStem: 40 250<329 391 329 391>
LayerCount: 2
Fore
SplineSet
40 329 m 1
 40 391 l 1
 290 391 l 1
 290 329 l 1
 40 329 l 1
EndSplineSet
Validated: 1
EndChar

StartChar: quotedblleft
Encoding: 258 8220 78
Width: 432
Flags: MW
HStem: 442 150<55 205 131 205 131 205 331 405 131 255>
VStem: 55 150<442 557 557 571.5> 255 150<442 557 557 571.5>
LayerCount: 2
Fore
SplineSet
55 442 m 1
 55 557 l 2
 55 586 59 607 69 634 c 2
 101 720 l 1
 177 720 l 1
 131 592 l 1
 205 592 l 1
 205 442 l 1
 55 442 l 1
255 442 m 1
 255 557 l 2
 255 586 259 607 269 634 c 2
 301 720 l 1
 377 720 l 1
 331 592 l 1
 405 592 l 1
 405 442 l 1
 255 442 l 1
EndSplineSet
Validated: 1
EndChar

StartChar: quotedblright
Encoding: 259 8221 79
Width: 432
Flags: MW
HStem: 570 150<27 101 27 177 27 227 227 301>
VStem: 27 150<590.5 605 605 720 590.5 720> 227 150<590.5 605 605 720 590.5 720>
LayerCount: 2
Fore
SplineSet
55 442 m 1
 101 570 l 1
 27 570 l 1
 27 720 l 1
 177 720 l 1
 177 605 l 2
 177 576 173 555 163 528 c 2
 131 442 l 1
 55 442 l 1
255 442 m 1
 301 570 l 1
 227 570 l 1
 227 720 l 1
 377 720 l 1
 377 605 l 2
 377 576 373 555 363 528 c 2
 331 442 l 1
 255 442 l 1
EndSplineSet
Validated: 1
EndChar

StartChar: quoteleft
Encoding: 260 8216 80
Width: 232
Flags: MW
HStem: 442 150<55 205 131 205 131 205>
VStem: 55 150<442 557 557 571.5>
LayerCount: 2
Fore
SplineSet
55 442 m 1
 55 557 l 2
 55 586 59 607 69 634 c 2
 101 720 l 1
 177 720 l 1
 131 592 l 1
 205 592 l 1
 205 442 l 1
 55 442 l 1
EndSplineSet
Validated: 1
EndChar

StartChar: quoteright
Encoding: 261 8217 81
Width: 232
Flags: MW
HStem: 570 150<27 101 27 177>
VStem: 27 150<590.5 605 605 720 590.5 720>
LayerCount: 2
Fore
SplineSet
55 442 m 1
 101 570 l 1
 27 570 l 1
 27 720 l 1
 177 720 l 1
 177 605 l 2
 177 576 173 555 163 528 c 2
 131 442 l 1
 55 442 l 1
EndSplineSet
Validated: 1
EndChar

StartChar: uni0087
Encoding: 135 135 83
Width: 419
Flags: W
HStem: 325 110<40 221.371> 610 110<209.629 391>
VStem: 40 150<482 591.13> 241 150<197 306.13>
LayerCount: 2
Fore
SplineSet
391 211 m 6
 391 197 l 29
 241 197 l 29
 241 224 l 22
 241 303 220 325 167 325 c 6
 40 325 l 5
 40 435 l 5
 195 435 l 6
 311 435 383 403 389 285 c 4
 391 246 392 230 391 211 c 6
40 496 m 2
 39 515 40 531 42 570 c 0
 48 688 120 720 236 720 c 2
 391 720 l 1
 391 610 l 1
 264 610 l 2
 211 610 190 588 190 509 c 10
 190 482 l 25
 40 482 l 25
 40 496 l 2
EndSplineSet
Validated: 33
EndChar

StartChar: uni0086
Encoding: 134 134 84
Width: 413
Flags: W
HStem: 350 110<18 360>
LayerCount: 2
Fore
SplineSet
18 350 m 5
 18 460 l 5
 360 460 l 5
 360 350 l 5
 18 350 l 5
EndSplineSet
Validated: 1
EndChar

StartChar: uni0085
Encoding: 133 133 85
Width: 244
Flags: W
HStem: 0 720<47 197 47 197>
VStem: 47 150<0 720 0 720>
LayerCount: 2
Fore
SplineSet
47 0 m 5
 47 720 l 5
 197 720 l 5
 197 0 l 5
 47 0 l 5
EndSplineSet
Validated: 1
EndChar
